<svg xmlns="http://www.w3.org/2000/svg" version="1.1" xmlns:xlink="http://www.w3.org/1999/xlink"
    xmlns:svgjs="http://svgjs.com/svgjs" width="500" height="500" preserveAspectRatio="none" viewBox="0 0 500 500">
    <g mask="url(&quot;#SvgjsMask1024&quot;)" fill="none">
        <rect width="500" height="500" x="0" y="0" fill="#0e2a47"></rect>
        <path
            d="M250 646.47C350.13 638.25 436.08 577.59 500.44 500.44 558.82 430.44 572.52 340.78 580.75 250 590.2 145.79 619.04 28.59 550.46-50.46 479.81-131.89 357.81-132.77 250-131.21 144.23-129.68 27.37-121.86-41.89-41.89-108.67 35.22-79.63 148-80.21 250-80.82 353.05-111.28 466.14-45.32 545.32 23.9 628.42 142.22 655.35 250 646.47"
            fill="rgba(28, 123, 142, 1)"></path>
        <path
            d="M250 506.54C314.79 501.22 370.41 461.97 412.05 412.05 449.83 366.75 458.69 308.74 464.02 250 470.13 182.57 488.79 106.74 444.41 55.59 398.7 2.9 319.76 2.32 250 3.34 181.56 4.33 105.94 9.39 61.13 61.13 17.92 111.03 36.71 184 36.34 250 35.94 316.68 16.23 389.85 58.91 441.09 103.7 494.86 180.26 512.28 250 506.54"
            fill="rgba(39, 159, 198, 1)"></path>
        <path
            d="M250 366.61C279.45 364.19 304.73 346.35 323.66 323.66 340.83 303.07 344.86 276.7 347.28 250 350.06 219.35 358.54 184.88 338.37 161.63 317.59 137.68 281.71 137.42 250 137.88 218.89 138.33 184.52 140.63 164.15 164.15 144.51 186.83 153.05 220 152.88 250 152.7 280.31 143.74 313.57 163.14 336.86 183.5 361.3 218.3 369.22 250 366.61"
            fill="rgba(72, 183, 219, 1)"></path>
    </g>
    <defs>
        <mask id="SvgjsMask1024">
            <rect width="500" height="500" fill="#ffffff"></rect>
        </mask>
    </defs>
</svg>